<?xml version="1.0" encoding="UTF-8" standalone="no"?>
<!DOCTYPE svg PUBLIC "-//W3C//DTD SVG 1.1//EN" "http://www.w3.org/Graphics/SVG/1.1/DTD/svg11.dtd">
<svg width="100%" height="100%" viewBox="0 0 1280 346" version="1.1" xmlns="http://www.w3.org/2000/svg" xmlns:xlink="http://www.w3.org/1999/xlink" xml:space="preserve" xmlns:serif="http://www.serif.com/" style="fill-rule:evenodd;clip-rule:evenodd;stroke-linejoin:round;stroke-miterlimit:2;">
    <g id="Background" transform="matrix(1,0,0,1,0,79)">
        <path d="M0,189.5L0,2.5C2.761,2.327 16.897,1.444 34.58,2.29C36.417,10.5 43.166,21.417 44.419,26.541C47.675,34.693 75.951,99.328 78.117,104.876C80.232,110.296 80.674,104.732 80.652,104.529C78.781,87.699 79.177,87.589 79.177,78.5C79.177,5.625 78.997,5.501 80.407,2.161C85.689,2.074 85.623,2.094 102.5,2.094C108.547,2.094 116.236,1.501 116.656,3.462C116.851,4.375 116.704,163.632 116.692,177.56C115.626,177.864 114.56,178.169 113.494,178.473C111.831,178.833 110.167,179.194 108.503,179.554L107.508,179.583C99.701,179.29 99.521,180.664 99.507,180.667C97.797,180.815 96.087,180.964 94.377,181.112C90.401,180.363 86.596,181.099 85.459,181.165C81.175,181.629 81.184,181.491 79.52,181.945C79.103,182.058 78.912,182.625 78.495,182.739C77.264,181.14 76.093,181.127 75.963,179.288C75.875,178.043 72.667,172.158 72.34,171.558C71.501,170.019 72.086,169.803 63.961,151.315C61.929,146.692 57.457,132.778 54.718,129.415C54.631,129.31 53.662,126.711 53.574,126.475C52.372,119.775 46.221,110.987 39.028,88.709C36.415,80.618 35.868,89.263 35.891,89.521C36.619,98.021 37.224,183.498 35.554,186.74L34.361,187.096C31.818,186.639 31.858,186.736 29.506,187.637C27.464,187.789 25.421,187.941 23.379,188.093C21.834,188.003 21.924,188.153 20.505,188.575L19.511,188.607C18.634,188.577 16.5,188.504 8.552,188.962C3.157,190.515 0.855,189.545 0,189.5Z" style="fill:rgb(216,31,38);fill-opacity:0.99;"/>
        <path d="M841.451,1.978C842.218,7.081 834.512,14.667 833.578,21.57C833.313,21.923 833.048,22.276 832.783,22.629C832.416,23.279 832.049,23.929 831.681,24.579C830.282,27.168 830.365,27.174 830.214,27.377C827.66,30.815 822.688,42.805 819.72,47.597C818.165,50.107 806.018,73.792 805.04,76.294C802.109,83.786 795.793,88.159 799.467,96.516C800.057,97.858 806.562,112.655 806.895,113.267C812.15,122.908 812.119,125.097 813.46,127.52C823.472,145.614 825.948,157.196 831.785,164.406L832.16,164.632C831.975,166.097 832.154,166.01 832.736,167.381C833.011,167.738 833.285,168.095 833.56,168.452C833.731,170.098 833.755,170.015 834.389,171.549C838.162,181.972 841.695,185.466 841.312,189.323C840.71,189.491 840.107,189.659 839.505,189.827C835.882,189.457 835.959,189.055 832.462,189.698C829.443,189.08 829.602,188.632 826.503,188.478C826.262,188.466 826.28,188.486 823.491,188.582C821.559,188.14 821.631,188.013 819.633,188.089C818.585,187.938 817.538,187.787 816.491,187.636C815.45,187.289 815.61,186.695 810.494,186.544C809.077,186.12 809.141,185.998 807.627,186.066C804.235,185.789 803.901,186.843 801.276,184.665C801.258,184.202 801.229,184.233 800.586,181.458C798.975,178.118 798.675,176.89 798.573,176.472C798.369,175.636 797.783,175.933 794.006,166.723C792.747,163.655 793.055,163.353 790.217,161.552C790.171,161.412 790.28,161.431 790.062,159.716C789.916,159.468 790.208,159.36 788.769,156.362C787.932,154.619 780.283,138.686 778.792,134.352C776.624,128.046 775.269,134.99 766.062,151.246C762.584,157.388 751.755,178.406 750.533,180.779L746.49,180.668C746.061,180.544 746.326,179.412 739.491,179.592L737.499,179.534C733.053,178.603 733.166,178.495 728.556,178.023C723.501,177.61 723.564,177.687 718.503,177.463C716.823,177.537 715.143,177.611 713.462,177.686C713.028,173.808 713.777,173.948 715.496,170.498C717.563,164.44 721.9,163.661 721.394,157.419L722.14,157.28C730.108,147.119 731.432,139.572 736.971,130.805C738.461,128.445 757.429,92.38 757.555,91.515C758.129,87.602 751.289,75.845 750.693,74.418C746.215,63.678 729.535,28.863 729.374,28.564C725.645,21.605 726.797,21.07 722.124,14.689C721.836,14.334 721.547,13.978 721.259,13.623C721.579,6.216 716.341,4.065 716.121,3.486C715.988,3.137 716.555,2.756 716.422,2.408C718.488,1.789 750.843,2.066 755.568,2.267C756.513,3.49 757.592,6.063 757.737,6.408C761.171,17.335 772.029,35.255 776.966,48.273C779.173,54.091 781.056,45.856 786.77,35.635C789.978,29.899 790.054,28.03 790.083,27.314C796.159,19.175 794.629,18.366 799.575,9.541C801.319,6.286 800.969,6.215 801.285,4.417C801.444,2.905 800.874,2.22 802.418,2.264C814.393,2.608 838.329,2.051 841.451,1.978Z" style="fill:rgb(216,31,38);fill-opacity:0.99;"/>
        <path d="M150.405,2.146C166.229,2.044 231.595,2.079 248.598,2.13C249.205,6.612 248.91,6.584 248.54,32.847C244.989,32.699 245.039,32.662 188.55,32.682C187.989,32.939 187.26,32.435 186.7,32.692C185.817,33.097 186.523,33.34 187.839,35.504C187.838,45.835 187.838,56.166 187.838,66.497C187.617,66.793 184.188,71.379 188.529,71.071C191.026,70.893 190.953,70.833 193.503,70.806C211.529,70.615 231.931,70.065 232.548,70.341C233.764,70.883 233.765,78.761 233.765,79.5C233.768,97.772 234.485,98.428 231.505,100.659C222.97,100.63 223.061,100.622 214.5,100.622C210.502,100.621 206.504,100.621 202.506,100.62C197.533,99.773 197.576,99.939 192.493,100.21C189.959,100.345 183.62,98.656 187.838,104.503C187.838,116.168 187.838,127.832 187.838,139.497C182.979,146.344 192.096,142.431 192.494,142.26C206.442,142.29 206.374,142.313 214.614,141.92C217.123,142.23 217.059,142.005 219.497,141.394L225.46,141.248C226.1,141.295 229.936,141.577 233.478,141.044C233.885,140.982 234.089,140.404 234.497,140.343C241.585,140.32 241.507,140.301 248.553,140.169C248.674,141.336 248.731,141.271 248.786,142.411C249.936,166.302 249.106,167.246 247.709,168.835C246.902,169.753 227.289,170.558 225.508,170.631C215.687,171.868 158.343,175.191 152.498,175.53C148.418,175.766 150.067,173.037 150.067,124.5C150.067,5.868 150.024,5.926 150.405,2.146Z" style="fill:rgb(216,31,38);fill-opacity:0.98;"/>
        <path d="M404.399,2.131C418.3,2.074 479.95,2.054 503.604,2.135C502.274,21.713 505.508,28.684 501.511,32.724C471.974,32.552 472.071,32.846 442.521,32.604C440.263,32.06 439.436,31.304 438.95,33.596C438.879,33.934 438.879,41.788 438.879,42.5C438.879,66.454 437.927,70.052 442.511,68.447C464.037,68.148 463.979,68.376 485.507,68.316C489.26,71.407 487.272,72.427 487.569,98.839C465.027,98.633 465.086,98.783 442.535,98.725C440.842,98.544 440.818,98.036 439.687,98.8C437.774,100.092 439.61,161.056 438.651,163.567C437.724,165.992 405.474,164.962 404.765,164.218C403.543,162.938 404.224,4.59 404.399,2.131Z" style="fill:rgb(216,31,38);fill-opacity:0.99;"/>
        <path d="M272.41,2.118C287.061,2.068 366.51,2.09 381.602,2.11C380.413,11.645 381.572,22.514 381.157,29.468C380.985,32.331 379.787,32.2 379.516,32.74C363.005,32.612 363.088,32.629 346.564,32.713C342.77,32.807 344.724,34.695 344.725,38.5C344.728,165.147 344.773,165.236 344.175,166.189C343.347,167.51 319.036,166.661 315.51,166.986C315.122,167.022 314.889,167.54 314.501,167.576L310.497,167.6C307.466,164.992 308.642,164.428 308.64,160.5C308.564,33.669 309.092,32.956 307.64,32.306C305.888,31.522 305.856,32.576 305.469,32.635C298.478,32.672 298.561,32.678 291.5,32.678C282.292,32.678 282.376,32.69 273.487,32.725C271.95,31.065 270.734,29.752 271.714,4.51C271.721,4.311 271.765,4.333 272.41,2.118Z" style="fill:rgb(216,31,38);fill-opacity:0.98;"/>
        <path d="M525.395,2.15C532.97,2.103 533.07,2.026 560.596,2.122C560.959,5.904 560.919,5.828 560.919,112.5C560.919,136.043 559.746,141.349 565.519,138.27L566.504,138.255C566.919,138.318 567.1,138.941 567.515,139.004C574.26,140.034 584.951,140.003 586.469,139.998C588.088,140.052 588.002,139.969 589.507,139.386C594.919,140.601 594.906,140.773 600.38,139.923C606.482,140.27 606.406,140.29 612.504,140.348C612.905,140.413 613.125,140.947 613.526,141.012C618.021,141.74 620.767,140.979 621.372,140.811L621.664,141.154C621.876,143.132 622.05,168.542 621.638,169.564C620.782,171.68 611.312,170.229 597.494,169.612C590.693,169.905 589.436,168.866 585.535,169.062C570.535,168.622 565.413,167.485 557.496,168.56L556.498,168.568C548.48,167.439 548.548,166.956 540.499,167.529C533.928,167.54 534.008,167.541 527.493,167.609C525.18,165.783 525.76,165.402 525.758,162.5C525.631,7.218 525.817,7.213 525.395,2.15Z" style="fill:rgb(216,31,38);fill-opacity:0.99;"/>
        <path d="M651.402,2.159C664.248,1.994 685.101,2.134 686.604,2.14C686.365,60.815 687.122,172.949 686.117,174.051C685.2,175.057 653.153,172.917 652.488,172.52C651.31,171.815 651.43,171.378 651.432,8.5C651.432,5.307 651.482,5.382 651.402,2.159Z" style="fill:rgb(216,31,38);fill-opacity:0.99;"/>
        <path d="M346.564,32.713C345.802,33.909 345.801,35.272 345.801,35.504C345.7,156.192 346.33,156.122 345.842,166.598C345.782,167.876 345.017,167.683 314.501,167.576C314.889,167.54 315.122,167.022 315.51,166.986C319.036,166.661 343.347,167.51 344.175,166.189C344.773,165.236 344.728,165.147 344.725,38.5C344.724,34.695 342.77,32.807 346.564,32.713Z" style="fill:rgb(189,27,33);fill-opacity:0.2;"/>
        <path d="M540.499,167.529C548.548,166.956 548.48,167.439 556.498,168.568C544.798,168.734 544.695,169.143 540.499,167.529Z" style="fill:rgb(196,27,34);fill-opacity:0.2;"/>
        <path d="M8.552,188.962C16.5,188.504 18.634,188.577 19.511,188.607C14.318,190.459 14.198,189.563 11.513,189.645C9.929,189.572 9.993,189.494 8.552,188.962Z" style="fill:rgb(187,26,32);fill-opacity:0.24;"/>
        <path d="M718.503,177.463C723.564,177.687 723.501,177.61 728.556,178.023C727.534,178.218 726.512,178.412 725.491,178.606C721.828,178.474 721.755,179.013 718.503,177.463Z" style="fill:rgb(196,27,34);fill-opacity:0.23;"/>
        <path d="M234.497,140.343C234.089,140.404 233.885,140.982 233.478,141.044C229.936,141.577 226.1,141.295 225.46,141.248C227.86,139.657 232.814,140.341 234.497,140.343Z" style="fill:rgb(182,26,32);fill-opacity:0.2;"/>
        <path d="M823.491,188.582C826.28,188.486 826.262,188.466 826.503,188.478C829.602,188.632 829.443,189.08 832.462,189.698L831.486,189.647C828.686,189.566 828.579,190.462 823.491,188.582Z" style="fill:rgb(183,26,32);fill-opacity:0.21;"/>
        <path d="M589.507,139.386C594.893,139.42 597.131,139.171 600.38,139.923C594.906,140.773 594.919,140.601 589.507,139.386Z" style="fill:rgb(178,25,31);fill-opacity:0.28;"/>
        <path d="M612.504,140.348C617.444,140.338 617.454,139.802 621.372,140.811C620.767,140.979 618.021,141.74 613.526,141.012C613.125,140.947 612.905,140.413 612.504,140.348Z" style="fill:rgb(183,26,32);fill-opacity:0.21;"/>
        <path d="M107.508,179.583C102.335,181.471 102.211,180.573 99.507,180.667C99.521,180.664 99.701,179.29 107.508,179.583Z" style="fill:rgb(188,27,33);fill-opacity:0.2;"/>
        <path d="M85.459,181.165C86.596,181.099 90.401,180.363 94.377,181.112C91.003,182 89.214,181.612 88.512,181.646C86.94,181.555 87.023,181.566 85.459,181.165Z" style="fill:rgb(184,26,32);fill-opacity:0.27;"/>
        <path d="M113.494,178.473C114.216,178.566 114.937,178.66 115.658,178.753C114.38,179.604 114.38,179.72 108.503,179.554C110.167,179.194 111.831,178.833 113.494,178.473Z" style="fill:rgb(183,26,32);fill-opacity:0.2;"/>
        <path d="M739.491,179.592C746.326,179.412 746.061,180.544 746.49,180.668C742.882,180.508 742.895,180.809 739.491,179.592Z" style="fill:rgb(186,26,32);fill-opacity:0.2;"/>
        <path d="M755.568,2.267C757.761,2.668 757.725,3.043 757.937,5.318L757.737,6.408C757.592,6.063 756.513,3.49 755.568,2.267Z" style="fill:rgb(206,29,36);fill-opacity:0.24;"/>
        <path d="M810.494,186.544C815.61,186.695 815.45,187.289 816.491,187.636C813.902,187.49 813.839,187.972 810.494,186.544Z" style="fill:rgb(178,25,31);fill-opacity:0.23;"/>
        <path d="M188.55,32.682C187.822,33.997 187.946,33.969 187.839,35.504C186.523,33.34 185.817,33.097 186.7,32.692C187.26,32.435 187.989,32.939 188.55,32.682Z" style="fill:rgb(187,26,33);fill-opacity:0.11;"/>
        <path d="M29.506,187.637C31.858,186.736 31.818,186.639 34.361,187.096C30.913,187.969 30.893,187.545 29.506,187.637Z" style="fill:rgb(183,26,31);fill-opacity:0.25;"/>
        <path d="M214.614,141.92C217.896,141.165 217.902,141.501 219.497,141.394C217.059,142.005 217.123,142.23 214.614,141.92Z" style="fill:rgb(181,25,31);fill-opacity:0.28;"/>
        <path d="M832.783,22.629C832.514,26.705 831.947,26.462 831.854,26.619L831.681,24.579C832.049,23.929 832.416,23.279 832.783,22.629Z" style="fill:rgb(164,23,29);fill-opacity:0.18;"/>
        <path d="M833.56,168.452C833.944,168.761 834.328,169.07 834.712,169.379L834.389,171.549C833.755,170.015 833.731,170.098 833.56,168.452Z" style="fill:rgb(212,30,37);fill-opacity:0.2;"/>
        <path d="M116.692,177.56C116.347,177.958 116.003,178.355 115.658,178.753C114.937,178.66 114.216,178.566 113.494,178.473C114.56,178.169 115.626,177.864 116.692,177.56Z" style="fill:rgb(204,29,35);fill-opacity:0.27;"/>
        <path d="M800.586,181.458C801.229,184.233 801.258,184.202 801.276,184.665C800.984,184.3 800.691,183.936 800.399,183.572C800.461,182.867 800.523,182.163 800.586,181.458Z" style="fill:rgb(173,24,30);fill-opacity:0.2;"/>
        <path d="M819.633,188.089C821.631,188.013 821.559,188.14 823.491,188.582C821.504,188.42 821.563,188.509 819.633,188.089Z" style="fill:rgb(177,25,30);fill-opacity:0.28;"/>
        <path d="M586.469,139.998C587.482,139.794 588.494,139.59 589.507,139.386C588.002,139.969 588.088,140.052 586.469,139.998Z" style="fill:rgb(202,29,35);fill-opacity:0.33;"/>
        <path d="M832.16,164.632C832.352,165.548 832.544,166.465 832.736,167.381C832.154,166.01 831.975,166.097 832.16,164.632Z" style="fill:rgb(171,24,30);fill-opacity:0.21;"/>
        <path d="M20.505,188.575C21.924,188.153 21.834,188.003 23.379,188.093C21.934,188.413 22.011,188.398 20.505,188.575Z" style="fill:rgb(177,26,30);fill-opacity:0.3;"/>
        <path d="M807.627,186.066C809.141,185.998 809.077,186.12 810.494,186.544C809.539,186.385 808.583,186.226 807.627,186.066Z" style="fill:rgb(175,23,31);fill-opacity:0.31;"/>
    </g>
    <g id="EATS" transform="matrix(1,0,0,1,856,72)">
        <path d="M153.5,5.993C171.538,5.993 173.276,5.169 173.933,8.426C175.226,14.832 179.98,29.648 180.567,31.475C181.124,33.212 180.266,33.378 186.576,53.472C186.697,53.858 194.536,83.144 196.569,89.474C197.344,91.885 198.244,97.124 201.568,107.475C206.668,123.361 205.068,123.739 210.243,139.595C211.269,142.74 219.721,173.093 219.469,173.478C218.971,174.24 195.398,174.306 194.518,173.48C193.224,172.265 190.045,157.721 188.427,152.527C188.108,151.504 186.435,146.139 185.093,139.561C184.334,135.839 182.558,136.041 181.509,136.036C140.829,135.823 140.673,134.963 137.405,136.294C135.847,136.929 136.065,137.327 131.245,156.407C128.096,168.875 128.089,173.919 124.521,173.961C103.313,174.209 102.166,174.244 102.378,172.482C102.395,172.341 116.036,123.112 116.181,122.442C117.453,116.561 127.71,81.171 128.748,77.592C138.144,45.173 137.176,44.979 146.436,12.476C146.547,12.085 147.382,9.156 147.988,7.629C148.797,5.594 149.473,6.458 153.5,5.993L161.124,44.803C159.755,45.082 159.544,45.076 159.44,46.485C158.996,52.458 145.121,102.114 144.566,105.51C144.206,107.713 147.394,107.107 148.5,107.104C174.708,107.029 176.981,107.777 176.419,105.513C176.059,104.062 172.496,89.7 171.755,87.406C166.812,72.121 168.699,71.665 163.746,56.41C161.892,50.699 162.54,50.597 161.124,44.803L153.5,5.993Z" style="fill:white;fill-opacity:0.99;"/>
        <path d="M26.5,5.993C88.649,5.993 89.688,5.77 89.782,7.434C89.814,8.005 89.857,32.938 89.774,33.559C89.518,35.457 88.387,34.905 32.5,34.966C28.653,34.97 26.925,33.638 26.807,37.505C26.719,40.391 25.731,72.732 27.416,73.598C30.019,74.935 85.362,72.789 87.165,74.809C87.608,75.304 87.887,75.388 87.803,96.5C87.801,97.017 87.78,102.53 86.638,102.855C84.196,103.549 27.76,101.922 26.997,103.794C26.968,103.865 26.144,143.944 27.416,144.598C29.716,145.78 88.071,144.131 89.488,145.513C90.242,146.248 90.261,172.73 89.512,173.512C88.844,174.211 3.425,174.354 2.546,173.457C1.977,172.876 2.142,172.681 2.122,10.5C2.122,4.636 4.618,6.066 10.5,6.066C18.523,6.065 18.433,6.14 26.5,5.993Z" style="fill:white;fill-opacity:0.99;"/>
        <path d="M423.999,112.5L423.999,138.5C421.34,143.146 422.369,143.445 420.573,148.53C405.692,190.65 344.658,186.325 330.423,145.532C329.902,144.037 323.71,126.293 326.375,126.155C328.217,126.06 347.772,125.046 349.425,126.579C350.182,127.281 348.601,128.022 354.952,138.236C364.864,154.176 405.627,154.557 399.09,121.557C393.37,92.684 329.592,117.769 329.106,57.503C329.079,54.091 328.885,30.06 341.796,16.788C348.843,9.544 359.042,1.083 380.536,2.209C380.662,2.215 415.977,3.34 422.796,48.46C423.577,53.628 420.684,51.836 415.5,51.852C402.406,51.89 398.761,52.554 398.199,49.56C393.626,25.204 363.134,29.521 356.926,39.744C356.222,40.905 352.356,47.271 353.924,56.449C357.175,75.481 391.106,72.331 401.658,80.281C403.646,81.778 404.17,80.844 406.667,83.319C409.492,86.119 411.681,85.878 414.923,91.252C415.743,92.611 422.059,103.08 422.824,109.449C422.903,110.11 422.704,110.821 422.943,111.443C423.122,111.908 423.82,112.035 423.999,112.5Z" style="fill:white;fill-opacity:1;"/>
        <path d="M315.005,20.5C315.005,28.413 316.085,34.934 312.519,34.964C276.59,35.273 275.381,34.254 275.059,36.384C274.642,39.139 275.682,172.27 274.493,173.493C274.181,173.815 274.122,173.923 254.501,174.035C249.34,174.064 251.099,171.65 251.079,166.5C250.881,115.325 251.634,36.563 250.54,35.457C249.362,34.266 212.951,35.9 211.521,34.48C210.855,33.818 210.772,7.311 211.536,6.535C212.512,5.544 287.585,6.275 310.5,6.066C316.38,6.012 314.932,8.595 314.932,14.5C314.932,17.565 314.968,17.486 315.005,20.5Z" style="fill:white;fill-opacity:0.99;"/>
    </g>
</svg>
