<svg width="64" height="64" viewBox="0 0 64 64" fill="none" xmlns="http://www.w3.org/2000/svg">
<path d="M16 22L19 58C19.1 59.5 20.5 60.5 22 60.5H42C43.5 60.5 44.9 59.5 45 58L48 22H16Z" fill="#E50914"/>
<path d="M23 22L25 58H29L27 22H23Z" fill="white" fill-opacity="0.85"/>
<path d="M35 22L37 58H41L39 22H35Z" fill="white" fill-opacity="0.85"/>
<path d="M14 18C14 16 15.5 14.5 17.5 14.5C18 14.5 18.5 14.7 19 15C19.5 13 21 11.5 23 11.5C24.5 11.5 26 12.5 26.5 13.5C27 11.5 29 10 31.5 10C34 10 36 11.5 36.5 13.5C37 12.5 38.5 11.5 40 11.5C42 11.5 43.5 13 44 15C44.5 14.7 45 14.5 45.5 14.5C47.5 14.5 49 16 49 18C49 20 47.5 21.5 45.5 21.5H17.5C15.5 21.5 14 20 14 18Z" fill="#F5C518"/>
<circle cx="20" cy="17" r="1.5" fill="#E0A800"/>
<circle cx="28" cy="14" r="1.5" fill="#E0A800"/>
<circle cx="36" cy="13" r="1.5" fill="#E0A800"/>
<circle cx="44" cy="16" r="1.5" fill="#E0A800"/>
</svg>